<?xml version="1.0" encoding="UTF-8"?>
<!-- Created with Inkscape (http://www.inkscape.org/) -->
<svg width="54.623mm" height="163.33mm" version="1.1" viewBox="0 0 54.623 163.33" xmlns="http://www.w3.org/2000/svg">
 <g transform="translate(-78.536 -40.242)" fill="none" stroke-width=".1">
  <g fill="none" stroke="#000" stroke-width=".1" aria-label="29 06 24">
   <path d="m102.19 76.494h-23.368l9.6012-10.719q1.27-1.524 2.6924-3.302 1.4732-1.778 2.6924-3.7592t2.032-4.1148 0.8128-4.3688q0-3.5052-1.8796-5.588-1.8288-2.0828-4.7244-2.0828-1.7272 0-2.8956 0.6604-1.1176 0.6604-1.8796 1.778-0.7112 1.0668-1.0668 2.54-0.3556 1.4224-0.508 2.9972h-5.08q0-2.1336 0.8636-4.0132t2.3876-3.2512q1.5748-1.3716 3.6576-2.1336 2.0828-0.8128 4.5212-0.8128 2.7432 0 4.9276 0.8128 2.1844 0.762 3.6576 2.1336t2.2352 3.2004q0.8128 1.778 0.8128 3.7592 0 2.4892-0.508 4.2672-0.4572 1.778-1.524 3.4544-1.016 1.6256-2.6924 3.4544-1.6256 1.8288-3.9624 4.3688l-6.604 7.0612h15.799zm10.617-5.4356q0.3048 1.778 1.6764 2.794 1.3716 0.9652 3.302 0.9652 2.54 0 4.1656-1.1684t2.54-3.2512q0.9144-2.1336 1.2192-5.08 0.3556-2.9464 0.3556-6.5024h-0.2032l-0.4572 1.1684q-0.4572 1.1684-1.3716 1.9812-0.8636 0.762-1.9812 1.27t-2.3876 0.7112q-1.2192 0.2032-2.4384 0.2032-1.7272 0-3.6068-0.6604-1.8288-0.6604-3.3528-2.0828t-2.54-3.556q-0.9652-2.1844-0.9652-5.2324 0-2.4892 0.8636-4.7244t2.3876-3.9116 3.6576-2.6416q2.1336-1.016 4.7244-1.016 3.7592 0 6.096 1.6764 2.3876 1.6764 3.6576 4.318 1.3208 2.6416 1.778 5.9436t0.4572 6.5024q0 3.4544-0.7112 6.7564-0.6604 3.302-2.2352 5.8928-1.524 2.54-3.9624 4.1148-2.4384 1.524-5.9436 1.524-1.6764 0-3.2004-0.3556t-2.7432-1.0668-2.032-1.8288q-0.8128-1.1684-1.016-2.7432zm12.751-18.796q0-2.5908-0.6604-4.4196t-1.6764-2.9972q-1.016-1.2192-2.3368-1.7272-1.27-0.5588-2.4892-0.5588-0.9652 0-2.1844 0.3556-1.1684 0.3556-2.2352 1.4224t-1.778 2.9972q-0.7112 1.8796-0.7112 4.9276 0 2.8448 0.6096 4.7244 0.6604 1.8288 1.6764 2.9464t2.1844 1.5748q1.2192 0.4572 2.3876 0.4572 1.27 0 2.54-0.508 1.27-0.5588 2.286-1.6764 1.0668-1.1684 1.7272-2.9972 0.6604-1.8796 0.6604-4.5212z"/>
   <path d="m79.126 122.32q0-1.4732 0.2032-3.4036 0.254-1.9812 0.762-4.0132 0.5588-2.0828 1.4224-4.064 0.9144-1.9812 2.2352-3.5052 1.3208-1.5748 3.1496-2.54t4.2672-0.9652 4.2672 0.9652q1.8796 0.9652 3.2004 2.54 1.3716 1.524 2.286 3.5052t1.4224 4.064q0.5588 2.032 0.762 4.0132 0.254 1.9304 0.254 3.4036 0 3.2004-0.7112 6.4516-0.7112 3.2004-2.2352 5.842-1.4732 2.6416-3.81 4.318-2.286 1.6256-5.4356 1.6256t-5.4356-1.6256q-2.2352-1.6764-3.7084-4.318t-2.1844-5.842q-0.7112-3.2512-0.7112-6.4516zm5.08 0q0 2.5908 0.2032 5.4356t0.9144 5.1816q0.762 2.3368 2.1336 3.8608t3.7084 1.524q2.3876 0 3.81-1.524t2.1336-3.8608q0.762-2.3368 0.9652-5.1816t0.2032-5.4356q0-2.6416-0.2032-5.5372t-0.9652-5.2324q-0.7112-2.3876-2.1336-3.9116-1.4224-1.5748-3.81-1.5748-2.3368 0-3.7084 1.5748-1.3716 1.524-2.1336 3.9116-0.7112 2.3368-0.9144 5.2324t-0.2032 5.5372zm47.092-12.497q-0.2032-1.5748-1.016-2.6924-0.8128-1.1684-2.032-1.8796t-2.7432-1.0668-3.2004-0.3556q-3.5052 0-5.9436 1.5748-2.4384 1.524-4.0132 4.1148-1.524 2.54-2.2352 5.842-0.6604 3.302-0.6604 6.7564 0 3.2512 0.4572 6.5532 0.4572 3.2512 1.7272 5.8928 1.3208 2.6416 3.6576 4.318 2.3876 1.6764 6.1468 1.6764 2.5908 0 4.7244-0.9652t3.6576-2.6416 2.3876-3.9116 0.8636-4.7752q0-3.048-0.9652-5.2324t-2.4892-3.6068-3.4544-2.0828q-1.8796-0.7112-3.7592-0.7112-3.1496 0-5.08 1.27-1.8796 1.27-2.7432 2.9972l-0.6096 1.1684h-0.2032q0-3.556 0.3048-6.5024 0.3556-2.9464 1.27-5.0292 0.9144-2.1336 2.54-3.302t4.1656-1.1684q1.9304 0 3.302 1.016 1.3716 0.9652 1.6764 2.7432zm-17.018 18.796q0-2.6416 0.6604-4.4704 0.6604-1.8796 1.6764-2.9972 1.0668-1.1684 2.3368-1.6764 1.27-0.5588 2.54-0.5588 1.1176 0 2.3368 0.4572t2.2352 1.5748 1.6256 2.9972q0.6604 1.8796 0.6604 4.6736 0 3.048-0.7112 4.9784-0.7112 1.8796-1.778 2.9464t-2.286 1.4224q-1.1684 0.3556-2.1336 0.3556-1.2192 0-2.54-0.508-1.27-0.5588-2.286-1.7272-1.016-1.2192-1.6764-3.048t-0.6604-4.4196z"/>
   <path d="m102.19 203.49h-23.368l9.6012-10.719q1.27-1.524 2.6924-3.302 1.4732-1.778 2.6924-3.7592t2.032-4.1148 0.8128-4.3688q0-3.5052-1.8796-5.588-1.8288-2.0828-4.7244-2.0828-1.7272 0-2.8956 0.6604-1.1176 0.6604-1.8796 1.778-0.7112 1.0668-1.0668 2.54-0.3556 1.4224-0.508 2.9972h-5.08q0-2.1336 0.8636-4.0132t2.3876-3.2512q1.5748-1.3716 3.6576-2.1336 2.0828-0.8128 4.5212-0.8128 2.7432 0 4.9276 0.8128 2.1844 0.762 3.6576 2.1336t2.2352 3.2004q0.8128 1.778 0.8128 3.7592 0 2.4892-0.508 4.2672-0.4572 1.778-1.524 3.4544-1.016 1.6256-2.6924 3.4544-1.6256 1.8288-3.9624 4.3688l-6.604 7.0612h15.799zm22.454-11.227h4.826v2.6924h-4.826v8.5344h-4.1148v-8.5344h-15.291l17.526-27.026h1.8796zm-15.443 0h11.328v-17.526z"/>
  </g>
 </g>
</svg>
