<?xml version="1.0" standalone="no"?>
<!DOCTYPE svg PUBLIC "-//W3C//DTD SVG 20010904//EN"
 "http://www.w3.org/TR/2001/REC-SVG-20010904/DTD/svg10.dtd">
<svg version="1.0" xmlns="http://www.w3.org/2000/svg"
 width="733.000000pt" height="733.000000pt" viewBox="0 0 733.000000 733.000000"
 preserveAspectRatio="xMidYMid meet">
<metadata>
Created by potrace 1.14, written by Peter Selinger 2001-2017
</metadata>
<g transform="translate(0.000000,733.000000) scale(0.100000,-0.100000)"
fill="#000000" stroke="none">
<path d="M3509 6635 c-2 -1 -44 -6 -94 -9 -49 -3 -101 -8 -115 -10 -14 -2 -47
-7 -73 -11 -27 -4 -59 -8 -70 -11 -439 -83 -800 -229 -1142 -462 -187 -127
-274 -200 -445 -372 -389 -388 -646 -840 -779 -1365 -62 -246 -86 -447 -86
-725 0 -96 4 -213 8 -260 113 -1339 1137 -2450 2462 -2669 190 -31 197 -32
450 -36 264 -4 404 7 617 50 374 74 723 214 1033 414 452 292 811 693 1050
1171 99 198 195 449 220 580 2 8 8 33 14 55 13 50 40 187 47 240 3 22 7 49 9
61 27 127 27 663 0 789 -3 11 -7 36 -9 55 -79 559 -362 1146 -751 1559 -362
384 -757 641 -1230 802 -113 38 -365 103 -440 114 -22 3 -53 7 -70 10 -42 7
-122 16 -175 22 -59 5 -427 13 -431 8z m446 -70 c382 -45 702 -138 1009 -292
302 -151 534 -318 771 -557 450 -452 717 -992 819 -1656 29 -185 29 -574 0
-785 -16 -122 -70 -358 -109 -482 -100 -314 -242 -593 -440 -858 -109 -146
-127 -167 -285 -325 -271 -273 -541 -455 -920 -624 -177 -78 -506 -171 -682
-192 -29 -3 -56 -8 -59 -10 -17 -10 -210 -19 -394 -19 -186 0 -307 6 -385 20
-14 2 -68 11 -120 20 -172 28 -450 109 -577 166 -23 10 -45 19 -48 19 -13 0
-205 94 -290 142 -174 100 -318 201 -480 338 -68 58 -267 261 -331 340 -146
177 -306 424 -382 590 -67 147 -76 168 -98 227 -63 167 -132 414 -148 530 -2
15 -9 62 -15 103 -21 153 -23 179 -25 380 -2 179 3 261 28 460 18 148 85 407
151 587 54 144 193 422 275 547 64 98 168 243 195 272 5 6 33 38 60 70 53 62
204 215 272 274 300 264 671 473 1054 594 114 37 348 91 434 101 28 3 59 8 70
10 11 2 59 7 105 11 47 3 86 7 88 9 5 5 406 -3 457 -10z"/>
<path d="M3868 4933 c-29 -54 -55 -137 -53 -169 7 -79 63 -214 90 -214 7 0 27
30 46 67 55 108 49 226 -17 326 -13 20 -28 37 -33 37 -4 0 -19 -21 -33 -47z"/>
<path d="M3641 4633 c6 -111 53 -197 132 -239 39 -21 117 -34 118 -20 5 59
-18 158 -50 209 -30 48 -90 84 -158 93 l-45 6 3 -49z"/>
<path d="M4088 4670 c-43 -13 -91 -46 -115 -78 -39 -53 -71 -203 -48 -222 9
-7 15 -8 19 -1 4 6 13 8 21 4 9 -3 39 6 68 21 81 40 121 112 134 239 5 46 4
47 -24 46 -15 0 -40 -4 -55 -9z"/>
<path d="M5153 4464 c-316 -53 -538 -261 -624 -585 -32 -119 -32 -329 0 -444
70 -260 259 -456 501 -521 97 -26 294 -27 388 -3 176 45 329 165 428 336 15
27 16 35 5 45 -10 11 -20 3 -54 -37 -70 -85 -160 -170 -211 -200 -69 -41 -159
-63 -257 -63 -358 -2 -572 248 -572 668 0 89 14 233 24 252 5 10 8 18 5 18 -7
0 12 68 37 130 84 215 247 331 467 330 203 0 356 -95 444 -275 19 -38 41 -89
48 -112 9 -31 18 -43 32 -43 17 0 18 7 12 103 -4 56 -9 125 -11 152 -2 28 -7
95 -10 150 -4 55 -9 102 -11 104 -16 17 -36 4 -53 -34 -31 -71 -60 -77 -156
-35 -159 70 -286 89 -432 64z"/>
<path d="M1413 4420 c-1 -15 5 -20 25 -21 85 -2 136 -27 167 -79 20 -34 20
-49 20 -645 0 -556 -2 -613 -17 -641 -21 -39 -72 -64 -139 -68 -43 -2 -53 -6
-55 -22 -3 -19 4 -20 259 -19 254 0 262 1 265 20 2 18 -4 20 -53 22 -31 2 -70
10 -88 19 -72 37 -69 11 -67 829 l1 380 35 -79 c19 -43 50 -111 68 -150 19
-40 57 -123 86 -186 29 -63 67 -146 85 -185 17 -38 92 -200 165 -360 73 -159
138 -296 144 -303 13 -13 46 -7 46 8 0 5 20 50 44 102 24 51 103 224 176 383
73 160 149 326 170 370 20 44 68 148 105 230 37 83 71 153 74 157 9 11 6
-1070 -3 -1112 -15 -66 -64 -99 -151 -103 -49 -2 -55 -4 -53 -22 3 -20 11 -20
320 -20 312 0 340 2 320 31 -4 5 -28 10 -55 11 -62 4 -111 25 -134 59 -17 26
-18 65 -18 654 0 581 1 628 18 653 26 40 59 58 124 64 55 6 78 17 67 35 -3 4
-101 8 -218 8 l-212 0 -26 -57 c-15 -32 -98 -215 -186 -408 -88 -192 -173
-379 -189 -415 -17 -36 -54 -118 -83 -183 -30 -64 -57 -114 -60 -110 -4 5 -40
80 -80 168 -40 88 -90 196 -111 240 -20 44 -53 115 -73 158 -20 42 -51 110
-70 150 -18 39 -44 95 -56 122 -13 28 -43 93 -67 145 -25 52 -54 116 -65 143
l-20 47 -217 0 c-210 0 -217 -1 -218 -20z"/>
<path d="M3644 4385 c-21 -53 32 -203 87 -249 31 -27 115 -56 145 -52 40 6 0
181 -54 239 -47 50 -167 92 -178 62z"/>
<path d="M4120 4390 c-121 -25 -176 -88 -197 -225 -12 -81 -12 -80 32 -77 87
6 158 62 190 153 19 51 31 160 19 158 -5 -1 -25 -5 -44 -9z"/>
<path d="M3643 4054 c9 -86 36 -154 82 -199 20 -21 106 -55 138 -55 l33 0 -7
63 c-8 65 -35 137 -66 174 -27 32 -91 64 -141 70 l-45 5 6 -58z"/>
<path d="M4077 4096 c-100 -36 -153 -125 -161 -271 -1 -17 5 -20 40 -19 61 1
125 36 157 86 15 24 26 45 25 48 -1 3 4 14 10 26 6 12 14 49 18 83 l6 61 -28
0 c-16 -1 -46 -7 -67 -14z"/>
<path d="M3643 3777 c18 -165 86 -249 212 -259 l40 -3 -4 39 c-5 65 -14 101
-36 151 -21 47 -89 102 -136 110 -13 2 -37 6 -53 9 l-28 5 5 -52z"/>
<path d="M4138 3824 c-2 -1 -16 -4 -33 -7 -45 -8 -67 -18 -102 -50 -51 -46
-79 -119 -87 -225 l-3 -33 41 6 c128 20 198 105 212 256 5 46 3 56 -10 56 -9
0 -17 -1 -18 -3z"/>
<path d="M3886 3454 c-14 -14 -16 -76 -16 -534 0 -517 0 -519 21 -534 17 -11
27 -12 45 -4 l24 11 0 523 c0 462 -2 524 -16 538 -8 9 -22 16 -29 16 -7 0 -21
-7 -29 -16z"/>
</g>
</svg>
